<?xml version="1.0" standalone="no"?>
<!DOCTYPE svg PUBLIC "-//W3C//DTD SVG 20010904//EN"
 "http://www.w3.org/TR/2001/REC-SVG-20010904/DTD/svg10.dtd">
<svg version="1.0" xmlns="http://www.w3.org/2000/svg"
 width="468.000000pt" height="171.000000pt" viewBox="0 0 468.000000 171.000000"
 preserveAspectRatio="xMidYMid meet">

<g transform="translate(0.000000,171.000000) scale(0.100000,-0.100000)"
fill="#000000" stroke="none">
<path d="M410 1432 c0 -109 3 -389 7 -621 l6 -422 126 -92 c69 -50 147 -107
173 -127 26 -19 61 -43 79 -54 l31 -19 -7 597 c-4 327 -10 610 -14 628 -7 34
-11 38 -295 246 -47 34 -90 62 -96 62 -6 0 -10 -70 -10 -198z m175 -81 c22
-15 65 -45 96 -68 l56 -41 7 -452 c4 -248 6 -454 3 -456 -5 -5 -107 56 -187
112 l-45 31 -3 444 c-1 244 0 450 3 457 3 8 10 10 17 6 7 -5 31 -19 53 -33z"/>
<path d="M3812 1237 c-27 -29 -28 -61 -2 -87 22 -22 60 -26 91 -10 28 16 27
84 -3 104 -32 22 -61 20 -86 -7z"/>
<path d="M1130 920 l0 -301 58 3 57 3 -1 295 0 295 -57 3 -57 3 0 -301z"/>
<path d="M1494 1055 c-58 -29 -54 -29 -54 -10 0 11 -12 15 -50 15 l-50 0 0
-220 0 -220 50 0 50 0 0 151 c0 151 6 180 39 206 20 16 63 16 95 1 37 -16 46
-61 46 -220 l0 -138 49 0 49 0 4 166 c3 160 4 166 27 185 37 31 111 21 134
-18 5 -8 9 -84 10 -171 l2 -157 53 -3 52 -3 0 171 c0 149 -2 176 -19 209 -25
47 -36 56 -88 70 -56 15 -124 -2 -163 -40 l-28 -29 -17 26 c-19 29 -71 54
-113 54 -16 0 -51 -11 -78 -25z"/>
<path d="M2275 1069 c-16 -7 -40 -20 -52 -31 -21 -20 -21 -20 -28 1 -5 18 -14
21 -56 21 l-49 0 0 -310 0 -310 49 0 c44 0 49 2 55 26 4 14 4 58 0 99 -4 41
-4 81 0 91 6 16 8 15 29 -4 87 -81 242 -38 298 83 12 27 19 63 19 110 0 136
-68 222 -181 230 -30 3 -67 0 -84 -6z m104 -102 c59 -28 79 -128 40 -197 -25
-45 -54 -60 -113 -60 -80 0 -122 58 -114 155 9 103 91 148 187 102z"/>
<path d="M2804 1069 c-17 -5 -43 -21 -58 -35 l-26 -27 0 27 c0 25 -3 26 -50
26 l-50 0 0 -220 0 -220 49 0 50 0 3 146 3 146 33 29 c26 23 42 29 78 29 l45
0 -3 53 c-3 58 -14 64 -74 46z"/>
<path d="M3045 1068 c-145 -51 -199 -247 -104 -376 42 -58 123 -96 188 -90 63
6 120 36 149 78 12 18 22 36 22 41 0 4 -16 13 -35 19 -32 11 -38 9 -65 -14
-61 -51 -152 -39 -184 23 -32 60 -32 60 142 63 l157 3 4 25 c1 14 -2 49 -9 78
-27 120 -151 190 -265 150z m124 -93 c29 -14 60 -70 46 -83 -8 -9 -202 -9
-210 0 -7 7 11 46 29 63 36 37 89 44 135 20z"/>
<path d="M3452 1054 c-47 -28 -72 -68 -72 -113 0 -69 47 -112 145 -131 86 -16
105 -28 105 -63 0 -39 -24 -56 -79 -57 -38 0 -49 5 -81 39 l-38 39 -32 -19
-31 -20 18 -32 c11 -17 38 -45 62 -62 37 -26 51 -30 109 -30 81 0 132 27 162
86 48 94 -2 174 -121 194 -71 11 -90 17 -104 32 -24 24 -18 51 16 69 42 21 90
11 135 -28 l35 -31 26 20 c15 10 28 24 30 29 5 15 -58 75 -94 90 -54 23 -141
18 -191 -12z"/>
<path d="M3970 1060 c-13 -8 -12 -16 20 -95 4 -11 27 -69 50 -130 23 -60 51
-134 62 -162 l20 -53 53 0 c41 0 54 4 60 18 3 9 22 60 41 112 19 52 39 104 44
115 30 72 72 186 69 189 -2 2 -26 6 -53 7 -48 4 -48 4 -63 -36 -30 -81 -52
-142 -74 -203 -12 -35 -25 -59 -29 -55 -9 10 -100 266 -100 282 0 6 -8 12 -17
12 -10 1 -30 3 -44 4 -14 2 -31 0 -39 -5z"/>
<path d="M3800 840 l0 -220 55 0 55 0 0 220 0 220 -55 0 -55 0 0 -220z"/>
</g>
</svg>
